# 3ds Max Wavefront OBJ Exporter v0.99 - (c)2007 guruware
# File Created: 02.12.2021 12:34:37

mtllib Button.mtl

#
# object Cylinder001
#

v  27.6927 0.0000 -9.1881
v  26.2407 0.0000 -17.4228
v  26.2407 9.2275 -17.4228
v  27.6927 9.2275 -9.1881
v  22.0598 0.0000 -24.6643
v  22.0598 9.2275 -24.6643
v  15.6543 0.0000 -30.0391
v  15.6543 9.2275 -30.0391
v  7.7968 0.0000 -32.8990
v  7.7968 9.2275 -32.8990
v  -0.5649 0.0000 -32.8990
v  -0.5649 9.2275 -32.8990
v  -8.4224 0.0000 -30.0391
v  -8.4224 9.2275 -30.0391
v  -14.8279 0.0000 -24.6643
v  -14.8279 9.2275 -24.6643
v  -19.0088 0.0000 -17.4228
v  -19.0088 9.2275 -17.4228
v  -20.4608 0.0000 -9.1881
v  -20.4608 9.2275 -9.1881
v  -19.0088 0.0000 -0.9533
v  -19.0088 9.2275 -0.9533
v  -14.8279 0.0000 6.2882
v  -14.8279 9.2275 6.2882
v  -8.4224 0.0000 11.6630
v  -8.4224 9.2275 11.6630
v  -0.5649 0.0000 14.5229
v  -0.5649 9.2275 14.5229
v  7.7968 0.0000 14.5229
v  7.7968 9.2275 14.5229
v  15.6543 0.0000 11.6630
v  15.6543 9.2275 11.6630
v  22.0598 0.0000 6.2882
v  22.0598 9.2275 6.2882
v  26.2407 0.0000 -0.9533
v  26.2407 9.2275 -0.9533
v  -3.3859 13.4826 -21.3156
v  -7.1115 13.4826 -18.1894
v  -9.5432 13.4826 -13.9776
v  -10.3877 13.4826 -9.1881
v  24.3323 7.4275 -16.7282
v  25.6618 7.4275 -9.1881
v  20.5041 7.4275 -23.3589
v  14.6389 7.4275 -28.2803
v  7.4442 7.4275 -30.8990
v  -0.2123 7.4275 -30.8990
v  -7.4070 7.4275 -28.2803
v  -13.2722 7.4275 -23.3589
v  -17.1004 7.4275 -16.7282
v  -18.4299 7.4275 -9.1881
v  -17.1004 7.4275 -1.6479
v  -13.2722 7.4275 4.9827
v  -7.4070 7.4275 9.9042
v  -0.2123 7.4275 12.5229
v  7.4442 7.4275 12.5229
v  14.6389 7.4275 9.9042
v  20.5040 7.4275 4.9828
v  24.3323 7.4275 -1.6479
v  24.3323 10.8185 -16.7282
v  25.6618 10.8185 -9.1881
v  20.5041 10.8185 -23.3589
v  14.6389 10.8185 -28.2803
v  7.4442 10.8185 -30.8990
v  -0.2123 10.8185 -30.8990
v  -7.4070 10.8185 -28.2803
v  -13.2722 10.8185 -23.3589
v  -17.1004 10.8185 -16.7282
v  -18.4299 10.8185 -9.1881
v  -17.1004 10.8185 -1.6479
v  -13.2722 10.8185 4.9827
v  -7.4070 10.8185 9.9042
v  -0.2123 10.8185 12.5229
v  7.4442 10.8185 12.5229
v  14.6389 10.8185 9.9042
v  20.5040 10.8185 4.9828
v  24.3323 10.8185 -1.6479
v  16.7751 13.4826 -13.9776
v  17.6196 13.4826 -9.1881
v  14.3434 13.4826 -18.1894
v  10.6178 13.4826 -21.3156
v  6.0477 13.4826 -22.9790
v  1.1842 13.4826 -22.9790
v  -9.5432 13.4826 -4.3985
v  -7.1115 13.4826 -0.1867
v  -3.3859 13.4826 2.9395
v  1.1842 13.4826 4.6029
v  6.0477 13.4826 4.6029
v  10.6178 13.4826 2.9395
v  14.3434 13.4826 -0.1867
v  16.7751 13.4826 -4.3985
# 90 vertices

vn 0.7423 -0.6701 0.0000
vn 0.6975 -0.6701 -0.2539
vn 0.4581 0.8731 -0.1667
vn 0.4874 0.8732 0.0000
vn 0.5687 -0.6700 -0.4772
vn 0.3735 0.8731 -0.3134
vn 0.3712 -0.6700 -0.6429
vn 0.2438 0.8731 -0.4223
vn 0.1289 -0.6700 -0.7311
vn 0.0847 0.8731 -0.4802
vn -0.1289 -0.6701 -0.7310
vn -0.0846 0.8731 -0.4801
vn -0.3712 -0.6701 -0.6428
vn -0.2438 0.8731 -0.4222
vn -0.5687 -0.6700 -0.4772
vn -0.3735 0.8731 -0.3134
vn -0.6975 -0.6701 -0.2539
vn -0.4581 0.8731 -0.1667
vn -0.7423 -0.6701 0.0000
vn -0.4875 0.8731 0.0000
vn -0.6975 -0.6701 0.2539
vn -0.4581 0.8731 0.1667
vn -0.5686 -0.6701 0.4771
vn -0.3734 0.8731 0.3134
vn -0.3712 -0.6700 0.6429
vn -0.2438 0.8731 0.4223
vn -0.1289 -0.6700 0.7311
vn -0.0847 0.8731 0.4802
vn 0.1289 -0.6700 0.7311
vn 0.0847 0.8731 0.4802
vn 0.3712 -0.6700 0.6429
vn 0.2438 0.8731 0.4223
vn 0.5686 -0.6701 0.4772
vn 0.3734 0.8731 0.3134
vn 0.6975 -0.6701 0.2539
vn 0.4580 0.8732 0.1667
vn -0.0882 0.9843 -0.1528
vn -0.1351 0.9843 -0.1134
vn -0.1658 0.9843 -0.0603
vn -0.1764 0.9843 -0.0000
vn 0.3001 0.9476 -0.1092
vn 0.3194 0.9476 0.0000
vn 0.2446 0.9476 -0.2053
vn 0.1597 0.9476 -0.2766
vn 0.0555 0.9476 -0.3146
vn -0.0555 0.9476 -0.3146
vn -0.1597 0.9476 -0.2766
vn -0.2447 0.9476 -0.2053
vn -0.3002 0.9476 -0.1093
vn -0.3194 0.9476 -0.0000
vn -0.3002 0.9476 0.1093
vn -0.2447 0.9476 0.2053
vn -0.1597 0.9476 0.2766
vn -0.0555 0.9476 0.3146
vn 0.0554 0.9476 0.3145
vn 0.1597 0.9476 0.2765
vn 0.2446 0.9476 0.2053
vn 0.3001 0.9476 0.1092
vn 0.7807 0.5566 -0.2841
vn 0.8308 0.5566 0.0000
vn 0.6364 0.5566 -0.5340
vn 0.4154 0.5566 -0.7195
vn 0.1443 0.5566 -0.8182
vn -0.1443 0.5566 -0.8182
vn -0.4154 0.5566 -0.7195
vn -0.6364 0.5566 -0.5340
vn -0.7807 0.5566 -0.2842
vn -0.8308 0.5566 -0.0000
vn -0.7807 0.5566 0.2842
vn -0.6364 0.5566 0.5340
vn -0.4154 0.5566 0.7195
vn -0.1443 0.5566 0.8182
vn 0.1443 0.5566 0.8182
vn 0.4154 0.5566 0.7195
vn 0.6364 0.5566 0.5340
vn 0.7807 0.5566 0.2841
vn 0.1658 0.9843 -0.0603
vn 0.1764 0.9843 0.0000
vn 0.1351 0.9843 -0.1134
vn 0.0882 0.9843 -0.1528
vn 0.0306 0.9843 -0.1737
vn -0.0306 0.9843 -0.1737
vn -0.1658 0.9843 0.0603
vn -0.1351 0.9843 0.1134
vn -0.0882 0.9843 0.1528
vn -0.0306 0.9843 0.1737
vn 0.0306 0.9843 0.1737
vn 0.0882 0.9843 0.1528
vn 0.1351 0.9843 0.1134
vn 0.1658 0.9843 0.0603
# 90 vertex normals

vt 0.7500 0.0000 1.0000
vt 0.8056 0.0000 1.0000
vt 0.8056 1.0000 1.0000
vt 0.7500 1.0000 1.0000
vt 0.8611 0.0000 1.0000
vt 0.8611 1.0000 1.0000
vt 0.9167 0.0000 1.0000
vt 0.9167 1.0000 1.0000
vt 0.9722 0.0000 1.0000
vt 0.9722 1.0000 1.0000
vt -0.0278 0.0000 1.0000
vt 0.0278 0.0000 1.0000
vt 0.0278 1.0000 1.0000
vt -0.0278 1.0000 1.0000
vt 0.0833 0.0000 1.0000
vt 0.0833 1.0000 1.0000
vt 0.1389 0.0000 1.0000
vt 0.1389 1.0000 1.0000
vt 0.1944 0.0000 1.0000
vt 0.1944 1.0000 1.0000
vt 0.2500 0.0000 1.0000
vt 0.2500 1.0000 1.0000
vt 0.3056 0.0000 1.0000
vt 0.3056 1.0000 1.0000
vt 0.3611 0.0000 1.0000
vt 0.3611 1.0000 1.0000
vt 0.4167 0.0000 1.0000
vt 0.4167 1.0000 1.0000
vt 0.4722 0.0000 1.0000
vt 0.4722 1.0000 1.0000
vt 0.5278 0.0000 1.0000
vt 0.5278 1.0000 1.0000
vt 0.5833 0.0000 1.0000
vt 0.5833 1.0000 1.0000
vt 0.6389 0.0000 1.0000
vt 0.6389 1.0000 1.0000
vt 0.6944 0.0000 1.0000
vt 0.6944 1.0000 1.0000
vt 0.9126 1.0000 0.6527
vt 0.8047 1.0000 0.3473
vt 0.6600 1.0000 0.0000
vt 0.4960 1.0000 -0.3473
vt 0.3400 0.0000 0.0000
vt 0.1953 0.0000 -0.3473
vt 0.9708 1.0000 0.8794
vt 0.3325 1.0000 -0.6527
vt 0.1891 1.0000 -0.8794
vt 0.0833 1.0000 -1.0000
vt 0.0278 1.0000 -1.0000
vt 0.0292 1.0000 -0.8794
vt 0.0874 1.0000 -0.6527
vt 0.1953 1.0000 -0.3473
vt 0.3325 0.0000 -0.6527
vt 0.4960 0.0000 -0.3473
vt 0.6600 0.0000 0.0000
vt 0.8047 0.0000 0.3473
vt 0.0278 0.0000 -1.0000
vt 0.0833 0.0000 -1.0000
vt 0.1891 0.0000 -0.8794
vt 0.0874 0.0000 -0.6527
vt 0.0292 0.0000 -0.8794
vt 0.9126 0.0000 0.6527
vt 0.9708 0.0000 0.8794
# 63 texture coords

o Cylinder001
g Cylinder001
usemtl wire_135006006
s 8
f 1/1/1 2/2/2 3/3/3 4/4/4 
f 2/2/2 5/5/5 6/6/6 3/3/3 
f 5/5/5 7/7/7 8/8/8 6/6/6 
f 7/7/7 9/9/9 10/10/10 8/8/8 
f 9/11/9 11/12/11 12/13/12 10/14/10 
f 11/12/11 13/15/13 14/16/14 12/13/12 
f 13/15/13 15/17/15 16/18/16 14/16/14 
f 15/17/15 17/19/17 18/20/18 16/18/16 
f 17/19/17 19/21/19 20/22/20 18/20/18 
f 19/21/19 21/23/21 22/24/22 20/22/20 
f 21/23/21 23/25/23 24/26/24 22/24/22 
f 23/25/23 25/27/25 26/28/26 24/26/24 
f 25/27/25 27/29/27 28/30/28 26/28/26 
f 27/29/27 29/31/29 30/32/30 28/30/28 
f 29/31/29 31/33/31 32/34/32 30/32/30 
f 31/33/31 33/35/33 34/36/34 32/34/32 
f 33/35/33 35/37/35 36/38/36 34/36/34 
f 35/37/35 1/1/1 4/4/4 36/38/36 
s 1
f 37/39/37 38/40/38 39/41/39 40/42/40 
f 2/2/2 1/1/1 35/43/35 33/44/33 
s off
f 4/4/4 3/3/3 41/3/41 42/4/42 
f 3/3/3 6/6/6 43/6/43 41/3/41 
f 6/6/6 8/8/8 44/8/44 43/6/43 
f 8/8/8 10/10/10 45/10/45 44/8/44 
f 10/10/10 12/45/12 46/45/46 45/10/45 
f 12/45/12 14/39/14 47/39/47 46/45/46 
f 14/39/14 16/40/16 48/40/48 47/39/47 
f 16/40/16 18/41/18 49/41/49 48/40/48 
f 18/41/18 20/42/20 50/42/50 49/41/49 
f 20/42/20 22/46/22 51/46/51 50/42/50 
f 22/46/22 24/47/24 52/47/52 51/46/51 
f 24/47/24 26/48/26 53/48/53 52/47/52 
f 26/48/26 28/49/28 54/49/54 53/48/53 
f 28/49/28 30/50/30 55/50/55 54/49/54 
f 30/50/30 32/51/32 56/51/56 55/50/55 
f 32/51/32 34/52/34 57/52/57 56/51/56 
f 34/52/34 36/38/36 58/38/58 57/52/57 
f 36/38/36 4/4/4 42/4/42 58/38/58 
f 42/4/42 41/3/41 59/3/59 60/4/60 
f 41/3/41 43/6/43 61/6/61 59/3/59 
f 43/6/43 44/8/44 62/8/62 61/6/61 
f 44/8/44 45/10/45 63/10/63 62/8/62 
f 45/10/45 46/45/46 64/45/64 63/10/63 
f 46/45/46 47/39/47 65/39/65 64/45/64 
f 47/39/47 48/40/48 66/40/66 65/39/65 
f 48/40/48 49/41/49 67/41/67 66/40/66 
f 49/41/49 50/42/50 68/42/68 67/41/67 
f 50/42/50 51/46/51 69/46/69 68/42/68 
f 51/46/51 52/47/52 70/47/70 69/46/69 
f 52/47/52 53/48/53 71/48/71 70/47/70 
f 53/48/53 54/49/54 72/49/72 71/48/71 
f 54/49/54 55/50/55 73/50/73 72/49/72 
f 55/50/55 56/51/56 74/51/74 73/50/73 
f 56/51/56 57/52/57 75/52/75 74/51/74 
f 57/52/57 58/38/58 76/38/76 75/52/75 
f 58/38/58 42/4/42 60/4/60 76/38/76 
f 60/4/60 59/3/59 77/3/77 78/4/78 
f 59/3/59 61/6/61 79/6/79 77/3/77 
f 61/6/61 62/8/62 80/8/80 79/6/79 
f 62/8/62 63/10/63 81/10/81 80/8/80 
f 63/10/63 64/45/64 82/45/82 81/10/81 
f 64/45/64 65/39/65 37/39/37 82/45/82 
f 65/39/65 66/40/66 38/40/38 37/39/37 
f 66/40/66 67/41/67 39/41/39 38/40/38 
f 67/41/67 68/42/68 40/42/40 39/41/39 
f 68/42/68 69/46/69 83/46/83 40/42/40 
f 69/46/69 70/47/70 84/47/84 83/46/83 
f 70/47/70 71/48/71 85/48/85 84/47/84 
f 71/48/71 72/49/72 86/49/86 85/48/85 
f 72/49/72 73/50/73 87/50/87 86/49/86 
f 73/50/73 74/51/74 88/51/88 87/50/87 
f 74/51/74 75/52/75 89/52/89 88/51/88 
f 75/52/75 76/38/76 90/38/90 89/52/89 
f 76/38/76 60/4/60 78/4/78 90/38/90 
s 1
f 88/51/88 89/52/89 90/38/90 78/4/78 
f 85/48/85 86/49/86 87/50/87 88/51/88 
f 40/42/40 83/46/83 84/47/84 85/48/85 
f 85/48/85 88/51/88 78/4/78 40/42/40 
f 80/8/80 81/10/81 82/45/82 37/39/37 
f 78/4/78 77/3/77 79/6/79 80/8/80 
f 80/8/80 37/39/37 40/42/40 78/4/78 
f 21/53/21 19/54/19 17/55/17 15/56/15 
f 27/57/27 25/58/25 23/59/23 21/53/21 
f 33/44/33 31/60/31 29/61/29 27/57/27 
f 27/57/27 21/53/21 15/56/15 33/44/33 
f 9/9/9 7/7/7 5/5/5 2/2/2 
f 15/56/15 13/62/13 11/63/11 9/9/9 
f 9/9/9 2/2/2 33/44/33 15/56/15 
# 88 polygons

#
# object Box001
#

v  0.8212 16.0864 0.4017
v  0.8139 16.0864 -18.9172
v  -8.8407 16.0864 -9.1091
v  0.8139 13.1129 -18.9172
v  -8.8407 13.1129 -9.1091
v  0.8212 13.1129 0.4017
# 6 vertices

vn 0.3237 0.5472 0.7719
vn 0.3172 0.5467 -0.7749
vn -0.8164 0.5774 0.0063
vn 0.3172 -0.5467 -0.7749
vn -0.8165 -0.5774 0.0064
vn 0.3235 -0.5471 0.7720
# 6 vertex normals

vt 0.0000 0.0000 0.0000
vt 1.0000 1.0000 0.0000
vt 0.0000 1.0000 0.0000
vt 1.0000 0.0000 0.0000
# 4 texture coords

o Box001
g Box001
usemtl wire_135006006
s 4
f 91/64/91 92/65/92 93/66/93 
s 32
f 94/64/94 95/67/95 93/65/93 92/66/92 
s 64
f 95/64/95 96/67/96 91/65/91 93/66/93 
s 30
f 91/67/91 96/67/96 94/66/94 92/66/92 
s 2
f 96/67/96 95/65/95 94/66/94 
# 3 polygons - 2 triangles

#
# object Box002
#

v  11.1241 16.0864 0.4017
v  11.1168 16.0864 -18.9172
v  1.4622 16.0864 -9.1091
v  11.1168 13.1129 -18.9172
v  1.4622 13.1129 -9.1091
v  11.1241 13.1129 0.4017
# 6 vertices

vn 0.3237 0.5472 0.7719
vn 0.3172 0.5467 -0.7749
vn -0.8164 0.5774 0.0063
vn 0.3172 -0.5467 -0.7749
vn -0.8165 -0.5774 0.0064
vn 0.3235 -0.5471 0.7720
# 6 vertex normals

vt 0.0000 0.0000 0.0000
vt 1.0000 1.0000 0.0000
vt 0.0000 1.0000 0.0000
vt 1.0000 0.0000 0.0000
# 4 texture coords

o Box002
g Box002
usemtl wire_135006006
s 4
f 97/68/97 98/69/98 99/70/99 
s 32
f 100/68/100 101/71/101 99/69/99 98/70/98 
s 64
f 101/68/101 102/71/102 97/69/97 99/70/99 
s 30
f 97/71/97 102/71/102 100/70/100 98/70/98 
s 2
f 102/71/102 101/69/101 100/70/100 
# 3 polygons - 2 triangles

